<?xml version="1.0" encoding="UTF-8"?>
<svg width="1440px" height="13px" viewBox="0 0 1440 13" version="1.1" xmlns="http://www.w3.org/2000/svg" xmlns:xlink="http://www.w3.org/1999/xlink">
    <title>top</title>
    <g id="Design-v3" stroke="none" stroke-width="1" fill="none" fill-rule="evenodd">
        <g id="Saffola-Masala-Oats_Landing-Page_Desktop_v3" transform="translate(0.000000, -737.000000)" fill="#FFF1BE">
            <g id="header" transform="translate(0.000000, -1.000000)">
                <path d="M20,738 L40,751 L0,751 L20,738 Z M180,738 L200,751 L160,751 L180,738 Z M100,738 L120,751 L80,751 L100,738 Z M260,738 L280,751 L240,751 L260,738 Z M60,738 L80,751 L40,751 L60,738 Z M220,738 L240,751 L200,751 L220,738 Z M140,738 L160,751 L120,751 L140,738 Z M300,738 L320,751 L280,751 L300,738 Z M660,738 L680,751 L640,751 L660,738 Z M820,738 L840,751 L800,751 L820,738 Z M740,738 L760,751 L720,751 L740,738 Z M900,738 L920,751 L880,751 L900,738 Z M700,738 L720,751 L680,751 L700,738 Z M860,738 L880,751 L840,751 L860,738 Z M780,738 L800,751 L760,751 L780,738 Z M940,738 L960,751 L920,751 L940,738 Z M340,738 L360,751 L320,751 L340,738 Z M500,738 L520,751 L480,751 L500,738 Z M420,738 L440,751 L400,751 L420,738 Z M580,738 L600,751 L560,751 L580,738 Z M380,738 L400,751 L360,751 L380,738 Z M540,738 L560,751 L520,751 L540,738 Z M460,738 L480,751 L440,751 L460,738 Z M620,738 L640,751 L600,751 L620,738 Z M980,738 L1000,751 L960,751 L980,738 Z M1140,738 L1160,751 L1120,751 L1140,738 Z M1340,738 L1360,751 L1320,751 L1340,738 Z M1060,738 L1080,751 L1040,751 L1060,738 Z M1220,738 L1240,751 L1200,751 L1220,738 Z M1420,738 L1440,751 L1400,751 L1420,738 Z M1020,738 L1040,751 L1000,751 L1020,738 Z M1180,738 L1200,751 L1160,751 L1180,738 Z M1380,738 L1400,751 L1360,751 L1380,738 Z M1100,738 L1120,751 L1080,751 L1100,738 Z M1300,738 L1320,751 L1280,751 L1300,738 Z M1260,738 L1280,751 L1240,751 L1260,738 Z" id="top"></path>
            </g>
        </g>
    </g>
</svg>